# Blender v2.79 (sub 0) OBJ File: ''
# www.blender.org
o Cube
v 3.000000 -1.001000 -3.000000
v 3.000000 -1.001000 3.000000
v -3.000000 -1.001000 3.000000
v -2.999999 -1.001000 -3.000001
v 3.000001 -0.999000 -2.999998
v 2.999998 -0.999000 3.000002
v -3.000001 -0.999000 2.999999
v -3.000000 -0.999000 -3.000000
v -3.010000 -1.000000 3.000000
v -3.010000 5.000000 3.000000
v -3.010000 -1.000000 -3.000000
v -3.010000 5.000000 -3.000000
v -2.990000 -1.000000 3.000000
v -2.990000 5.000000 3.000000
v -2.990000 -1.000000 -3.000000
v -2.990000 5.000000 -3.000000
v -3.000000 -1.000000 3.010000
v -3.000000 5.000000 3.010000
v -3.000000 -1.000000 2.990000
v -3.000000 5.000000 2.990000
v 3.000000 -1.000000 3.010000
v 3.000000 5.000000 3.010000
v 3.000000 -1.000000 2.990000
v 3.000000 5.000000 2.990000
v -3.000000 -1.000000 -2.990000
v -3.000000 5.000000 -2.990000
v -3.000000 -1.000000 -3.010000
v -3.000000 5.000000 -3.010000
v 3.000000 -1.000000 -2.990000
v 3.000000 5.000000 -2.990000
v 3.000000 -1.000000 -3.010000
v 3.000000 5.000000 -3.010000
v 2.990000 -1.000000 3.000000
v 2.990000 5.000000 3.000000
v 2.990000 -1.000000 -3.000000
v 2.990000 5.000000 -3.000000
v 3.010000 -1.000000 3.000000
v 3.010000 5.000000 3.000000
v 3.010000 -1.000000 -3.000000
v 3.010000 5.000000 -3.000000
vt 0.000000 -1.000000
vt -1.000000 0.000000
vt 0.000000 0.000000
vt -1.000000 1.000000
vt -0.000000 -0.000000
vt 0.000000 1.000000
vt -0.000000 1.500000
vt -1.000000 0.500000
vt 0.000000 0.500000
vt -0.000000 1.500000
vt -1.000000 0.500000
vt 0.000000 0.500000
vt 0.000000 0.500000
vt 1.000000 1.500000
vt 1.000000 0.500000
vt 0.000000 -0.500000
vt -1.000000 0.500000
vt 0.000000 0.500000
vt 0.000000 2999.999756
vt 1.000000 0.000000
vt 0.000000 0.000000
vt 0.998333 2999.999756
vt 1.001667 0.000000
vt 0.998333 0.000000
vt 0.000000 2999.999756
vt -1.000000 0.000000
vt 0.000000 0.000000
vt 0.001667 2999.999756
vt -0.001667 0.000000
vt 0.001667 0.000000
vt 0.998333 -1.000000
vt -0.001667 0.000000
vt 0.001667 -1.000000
vt 0.001667 0.000000
vt 0.998333 2999.999756
vt 1.001667 0.000000
vt 0.998333 0.000000
vt 0.000000 2999.999756
vt 1.000000 0.000000
vt 0.000000 0.000000
vt 0.001667 2999.999756
vt -0.001667 0.000000
vt 0.001667 0.000000
vt 0.000000 2999.999756
vt -1.000000 0.000000
vt 0.000000 0.000000
vt 1.000000 0.001667
vt 0.000000 -0.001667
vt 0.000000 0.001667
vt -1.000000 0.001667
vt 0.000000 -0.001667
vt 0.000000 0.001667
vt 0.998333 2999.999756
vt 1.001667 0.000000
vt 0.998333 0.000000
vt 0.000000 2999.999756
vt 1.000000 0.000000
vt 0.000000 0.000000
vt 0.001667 2999.999756
vt -0.001667 0.000000
vt 0.001667 0.000000
vt 0.000000 2999.999756
vt -1.000000 0.000000
vt 0.000000 0.000000
vt 1.000000 0.001667
vt 0.000000 -0.001667
vt 0.000000 0.001667
vt -1.000000 0.001667
vt 0.000000 -0.001667
vt 0.000000 0.001667
vt 0.000000 2999.999756
vt 1.000000 0.000000
vt 0.000000 0.000000
vt 0.998333 2999.999756
vt 1.001667 0.000000
vt 0.998333 0.000000
vt 0.000000 2999.999756
vt -1.000000 0.000000
vt 0.000000 0.000000
vt 0.001667 2999.999756
vt -0.001667 0.000000
vt 0.001667 0.000000
vt 0.998333 -1.000000
vt -0.001667 0.000000
vt 0.001667 -1.000000
vt 0.001667 0.000000
vt -1.000000 -1.000000
vt -1.000000 0.000000
vt -1.000000 1.500000
vt -1.000000 1.500000
vt 0.000000 1.500000
vt -1.000000 -0.500000
vt 1.000000 2999.999756
vt 1.001667 2999.999756
vt -1.000000 2999.999756
vt -0.001667 2999.999756
vt 1.001667 -1.000000
vt -0.001667 -1.000000
vt 1.001667 2999.999756
vt 1.000000 2999.999756
vt -0.001667 2999.999756
vt -1.000000 2999.999756
vt 1.000000 -0.001667
vt -1.000000 -0.001667
vt 1.001667 2999.999756
vt 1.000000 2999.999756
vt -0.001667 2999.999756
vt -1.000000 2999.999756
vt 1.000000 -0.001667
vt -1.000000 -0.001667
vt 1.000000 2999.999756
vt 1.001667 2999.999756
vt -1.000000 2999.999756
vt -0.001667 2999.999756
vt 1.001667 -1.000000
vt -0.001667 -1.000000
vn 0.0000 -1.0000 0.0000
vn 0.0000 1.0000 0.0000
vn 1.0000 -0.0003 0.0000
vn -0.0000 -0.0010 1.0000
vn -1.0000 -0.0002 -0.0000
vn 0.0000 0.0007 -1.0000
vn -1.0000 0.0000 0.0000
vn 0.0000 0.0000 -1.0000
vn 1.0000 0.0000 0.0000
vn 0.0000 0.0000 1.0000
vn 1.0000 0.0010 0.0000
vn -0.0000 0.0002 1.0000
vn -1.0000 -0.0006 -0.0000
vn 0.0000 0.0005 -1.0000
s off
f 2/1/1 4/2/1 1/3/1
f 8/4/2 6/5/2 5/6/2
f 5/7/3 2/8/3 1/9/3
f 6/10/4 3/11/4 2/12/4
f 3/13/5 8/14/5 4/15/5
f 1/16/6 8/17/6 5/18/6
f 10/19/7 11/20/7 9/21/7
f 12/22/8 15/23/8 11/24/8
f 16/25/9 13/26/9 15/27/9
f 14/28/10 9/29/10 13/30/10
f 15/23/1 9/31/1 11/24/1
f 12/32/2 14/33/2 16/34/2
f 18/35/7 19/36/7 17/37/7
f 20/38/8 23/39/8 19/40/8
f 24/41/9 21/42/9 23/43/9
f 22/44/10 17/45/10 21/46/10
f 23/47/1 17/48/1 19/49/1
f 20/50/2 22/51/2 24/52/2
f 26/53/7 27/54/7 25/55/7
f 28/56/8 31/57/8 27/58/8
f 32/59/9 29/60/9 31/61/9
f 30/62/10 25/63/10 29/64/10
f 31/65/1 25/66/1 27/67/1
f 28/68/2 30/69/2 32/70/2
f 34/71/7 35/72/7 33/73/7
f 36/74/8 39/75/8 35/76/8
f 40/77/9 37/78/9 39/79/9
f 38/80/10 33/81/10 37/82/10
f 39/75/1 33/83/1 35/76/1
f 36/84/2 38/85/2 40/86/2
f 2/1/1 3/87/1 4/2/1
f 8/4/2 7/88/2 6/5/2
f 5/7/11 6/89/11 2/8/11
f 6/10/12 7/90/12 3/11/12
f 3/13/13 7/91/13 8/14/13
f 1/16/14 4/92/14 8/17/14
f 10/19/7 12/93/7 11/20/7
f 12/22/8 16/94/8 15/23/8
f 16/25/9 14/95/9 13/26/9
f 14/28/10 10/96/10 9/29/10
f 15/23/1 13/97/1 9/31/1
f 12/32/2 10/98/2 14/33/2
f 18/35/7 20/99/7 19/36/7
f 20/38/8 24/100/8 23/39/8
f 24/41/9 22/101/9 21/42/9
f 22/44/10 18/102/10 17/45/10
f 23/47/1 21/103/1 17/48/1
f 20/50/2 18/104/2 22/51/2
f 26/53/7 28/105/7 27/54/7
f 28/56/8 32/106/8 31/57/8
f 32/59/9 30/107/9 29/60/9
f 30/62/10 26/108/10 25/63/10
f 31/65/1 29/109/1 25/66/1
f 28/68/2 26/110/2 30/69/2
f 34/71/7 36/111/7 35/72/7
f 36/74/8 40/112/8 39/75/8
f 40/77/9 38/113/9 37/78/9
f 38/80/10 34/114/10 33/81/10
f 39/75/1 37/115/1 33/83/1
f 36/84/2 34/116/2 38/85/2
